<svg width="500" height="500" viewBox="0 0 500 500" fill="none" xmlns="http://www.w3.org/2000/svg">
<g clip-path="url(#clip0_722_2)">
<path d="M465.681 304.585L449.914 415.295H48.998L37.158 330.839C35.841 321.376 41.0719 312.207 49.901 308.536L85.483 293.769V258.382C85.483 247.956 93.1159 239.115 103.433 237.616L111.847 236.384L125.98 188.596C128.614 179.67 136.808 173.561 146.1 173.561H290.66C296.159 173.561 301.196 175.683 304.951 179.17C308.707 182.67 311.182 187.535 311.585 193.023L380.42 200.291C390.639 201.376 398.565 209.681 399.175 219.936L401.955 267.688L450.597 281.431C460.718 284.281 467.156 294.183 465.681 304.585Z" fill="#DAE8EF"/>
<path d="M73.034 327.417L85.549 415.294H403.78L413.178 348.256C414.223 340.745 410.071 333.466 403.063 330.553L374.819 318.832V290.743C374.819 282.467 368.76 275.45 360.571 274.26L353.892 273.282L342.674 235.349C340.583 228.264 334.079 223.415 326.703 223.415H211.959C207.594 223.415 203.596 225.099 200.615 227.867C197.634 230.645 195.669 234.507 195.349 238.863L140.71 244.632C132.599 245.494 126.307 252.085 125.823 260.225L123.616 298.129L85.006 309.037C76.974 311.301 71.863 319.161 73.034 327.417Z" fill="#CCD9E2"/>
<path d="M335.572 382.548C335.572 373.077 328.637 365.045 319.266 363.683L311.622 362.564L298.783 319.15C296.39 311.041 288.946 305.491 280.505 305.491H149.178C144.182 305.491 139.607 307.418 136.195 310.587C132.783 313.766 130.534 318.186 130.169 323.171L73.311 329.174L85.576 415.294H337.014L335.573 414.696V382.548H335.572Z" fill="#BCCED8"/>
<path d="M217.786 99.1177H120.232V190.172H217.786V99.1177Z" fill="#112B46"/>
<path d="M217.786 99.1177H120.232V108.748H217.786V99.1177Z" fill="#1D262D"/>
<path d="M196.699 104.042C196.699 105.017 195.909 105.807 194.934 105.807C193.959 105.807 193.169 105.017 193.169 104.042C193.169 103.067 193.959 102.277 194.934 102.277C195.909 102.277 196.699 103.067 196.699 104.042Z" fill="#606BF1"/>
<path d="M204.069 104.042C204.069 105.017 203.279 105.807 202.304 105.807C201.329 105.807 200.539 105.017 200.539 104.042C200.539 103.067 201.329 102.277 202.304 102.277C203.279 102.277 204.069 103.067 204.069 104.042Z" fill="#FBD15B"/>
<path d="M210.913 104.228C210.913 105.203 210.123 105.993 209.148 105.993C208.173 105.993 207.383 105.203 207.383 104.228C207.383 103.253 208.173 102.463 209.148 102.463C210.123 102.463 210.913 103.253 210.913 104.228Z" fill="#FF8578"/>
<path d="M151.395 117.7H137.578V118.861H151.395V117.7Z" fill="#FF8578"/>
<path d="M167.612 117.7H153.795V118.861H167.612V117.7Z" fill="#FBD15B"/>
<path d="M163.278 123.955H141.852V125.116H163.278V123.955Z" fill="#606BF1"/>
<path d="M177.711 123.955H166.82V125.116H177.711V123.955Z" fill="#FF8578"/>
<path d="M158.694 130.211H149.284V131.372H158.694V130.211Z" fill="#FBD15B"/>
<path d="M195.35 130.211H164.133V131.372H195.35V130.211Z" fill="#FBD15B"/>
<path d="M192.27 136.467H156.593V137.628H192.27V136.467Z" fill="#606BF1"/>
<path d="M158.653 142.723H147.673V143.884H158.653V142.723Z" fill="#FF8578"/>
<path d="M174.331 142.723H163.351V143.884H174.331V142.723Z" fill="#606BF1"/>
<path d="M153.551 175.178H137.578V176.339H153.551V175.178Z" fill="#FF8578"/>
<path d="M175.12 175.178H159.146V176.339H175.12V175.178Z" fill="#FBD15B"/>
<path d="M196.106 175.178H180.133V176.339H196.106V175.178Z" fill="#FF8578"/>
<path d="M173.069 168.923H141.852V170.084H173.069V168.923Z" fill="#606BF1"/>
<path d="M209.153 168.923H177.936V170.084H209.153V168.923Z" fill="#FF8578"/>
<path d="M180.262 162.667H149.284V163.828H180.262V162.667Z" fill="#FF8578"/>
<path d="M191.585 162.667H182.963V163.828H191.585V162.667Z" fill="#FBD15B"/>
<path d="M158.923 156.411H147.261V157.572H158.923V156.411Z" fill="#FBD15B"/>
<path d="M176.778 156.411H165.116V157.572H176.778V156.411Z" fill="#606BF1"/>
<path d="M195.94 156.411H184.278V157.572H195.94V156.411Z" fill="#FF8578"/>
<path d="M177.131 150.155H160.779V151.316H177.131V150.155Z" fill="#FBD15B"/>
<path d="M154.61 150.155H138.258V151.316H154.61V150.155Z" fill="#606BF1"/>
<path d="M130.021 116.584H128.535V118.071H130.021V116.584Z" fill="#F9FBFC"/>
<path d="M130.022 171.126H128.536V168.095H130.022V171.126ZM130.022 163.547H128.536V160.516H130.022V163.547ZM130.022 155.967H128.536V152.935H130.022V155.967ZM130.022 148.388H128.536V145.356H130.022V148.388ZM130.022 140.809H128.536V137.777H130.022V140.809ZM130.022 133.23H128.536V130.198H130.022V133.23ZM130.022 125.65H128.536V122.618H130.022V125.65Z" fill="#F9FBFC"/>
<path d="M130.021 175.673H128.535V177.16H130.021V175.673Z" fill="#F9FBFC"/>
<path d="M319.106 79.7749H238.776V129.29H319.106V79.7749Z" fill="#FF8578"/>
<path d="M269.975 99.6898L260.418 103.769L269.975 107.788L268.724 110.676L257.262 105.555V102.012L268.724 96.8608L269.975 99.6898Z" fill="#F9FBFC"/>
<path d="M284.059 90.2528L277.122 116.899L273.817 116.125L280.784 89.5088L284.059 90.2528Z" fill="#F9FBFC"/>
<path d="M300.646 102.013V105.556L289.183 110.677L287.933 107.789L297.46 103.77L287.933 99.6908L289.183 96.8628L300.646 102.013Z" fill="#F9FBFC"/>
<path d="M362.101 175.7H316.347V208.296H362.101V175.7Z" fill="#606BF1"/>
<path d="M335.486 182.737C334.014 182.737 333.524 183.134 333.524 184.232V189.138C333.524 191.054 332.73 191.638 331.398 192.012C332.73 192.362 333.524 192.946 333.524 194.838V199.744C333.524 200.842 334.038 201.239 335.486 201.239V203.388C331.772 203.388 330.72 202.197 330.72 199.72V195.071C330.72 193.739 330.37 193.226 329.155 193.226V190.773C330.37 190.773 330.72 190.236 330.72 188.904V184.255C330.72 181.755 331.772 180.587 335.486 180.587V182.737Z" fill="#F1F2F2"/>
<path d="M347.728 184.256V188.905C347.728 190.237 348.078 190.774 349.317 190.774V193.227C348.079 193.227 347.728 193.741 347.728 195.072V199.721C347.728 202.197 346.677 203.389 342.962 203.389V201.24C344.41 201.24 344.924 200.843 344.924 199.745V194.839C344.924 192.947 345.718 192.363 347.05 192.013C345.718 191.639 344.924 191.055 344.924 189.139V184.233C344.924 183.135 344.434 182.738 342.962 182.738V180.589C346.677 180.588 347.728 181.756 347.728 184.256Z" fill="#F1F2F2"/>
<path d="M140.512 86.876H89.183V121.208H140.512V86.876Z" fill="#FBD15B"/>
<path d="M106.171 96.731C103.72 99.798 103.758 104.28 106.255 107.31C109.092 110.753 113.952 111.307 117.444 108.978L122.831 114.365C123.058 114.592 123.427 114.592 123.654 114.365L125.168 112.852C125.395 112.625 125.395 112.256 125.168 112.029L119.781 106.642C121.963 103.37 121.614 98.897 118.729 96.012C115.219 92.502 109.359 92.742 106.171 96.731ZM116.984 106.182C114.661 108.505 110.882 108.504 108.559 106.182C106.236 103.859 106.236 100.08 108.559 97.757C110.882 95.434 114.661 95.434 116.984 97.757C119.306 100.079 119.307 103.859 116.984 106.182Z" fill="#F9FBFC"/>
<path d="M289.826 192.922C289.714 194.056 288.164 205.895 275.99 205.895C263.208 205.895 265.349 193.241 265.349 193.241L265.333 193.161C266.579 192.905 267.921 192.809 269.343 192.969V186.977L283.85 178.861H284.377V192.841C284.377 192.841 286.678 192.57 289.826 192.922Z" fill="url(#paint0_radial_722_2)"/>
<path d="M282.78 152.117C284.837 154.203 286.392 156.903 287.14 160.202C288.534 166.348 287.222 172.851 285.439 178.774C285.134 179.787 284.788 180.809 284.162 181.662C283.715 182.27 283.141 182.772 282.571 183.267C279.99 185.514 277.411 187.762 274.836 190.016C273.091 191.544 262.347 192.817 260.296 191.351C252.394 185.701 250.874 169.333 252.456 160.965C255.08 147.082 272.923 142.118 282.78 152.117Z" fill="url(#paint1_radial_722_2)"/>
<path d="M278.342 169.883C278.447 168.547 279.821 167.083 281.2 167.95C282.628 168.848 282.292 171.221 281.7 172.527C281.236 173.551 279.684 174.672 278.633 173.72C277.752 172.922 279.121 171.98 279.166 171.252C279.206 170.596 277.894 170.126 278.431 169.424" fill="#F7B094"/>
<path d="M278.595 176.061C280.035 176.493 282.474 175.395 283.092 173.389C283.709 171.383 283.643 169.093 283.643 169.093C283.643 169.093 284.368 170.909 283.995 173.83C283.622 176.752 282.598 179.535 280.305 179.571C278.012 179.608 278.595 176.061 278.595 176.061Z" fill="#F7B094"/>
<path d="M276.828 173.982C276.781 174.005 276.728 174.022 276.667 174.031C275.775 174.156 275.42 173.077 275.287 172.401C274.978 170.824 275.027 169.228 274.971 167.633C274.958 167.233 274.99 166.735 274.826 166.359C274.325 165.212 272.99 164.466 272.583 163.282C272.109 161.904 273.447 160.529 272.916 159.02C272.103 156.709 269.136 156.178 266.99 156.203C263.769 156.241 260.63 156.838 257.452 157.331C254.097 157.852 249.809 158.346 246.853 156.224C243.29 153.667 241.802 147.002 244.461 143.353C245.91 141.364 248.659 140.305 251.067 140.25C253.62 140.192 255.777 141.713 258.118 142.479C259.983 143.089 261.787 141.305 263.53 140.956C265.721 140.518 266.652 142.91 268.59 142.976C270.473 143.04 272.321 141.569 274.152 141.234C277.802 140.568 277.587 144.234 280.037 145.486C281.559 146.264 283.526 145.793 285.066 146.584C286.236 147.185 286.4 148.241 286.655 149.437C286.875 150.471 286.888 151.665 287.228 152.648C287.534 153.532 288.277 154.09 288.856 154.782C289.488 155.536 289.891 156.417 290.212 157.363C290.922 159.46 291.08 161.723 290.886 163.919C290.56 167.606 289.374 171.234 288.143 174.706C287.344 176.959 287.047 179.305 285.818 181.437C285.488 182.01 284.022 183.683 283.477 182.437C283.36 182.17 283.378 181.866 283.399 181.575C283.561 179.253 285.723 164.288 280.055 166.086C278.865 166.463 278.067 167.453 277.623 168.583C277.093 169.934 277.055 171.295 277.123 172.723C277.133 172.927 277.138 173.132 277.13 173.336C277.12 173.601 277.054 173.869 276.828 173.982Z" fill="#3D3D7A"/>
<path d="M269.343 191.599C275.789 190.563 280.042 185.471 280.042 185.471C280.042 185.471 278.303 194.053 268.956 194.507L269.343 191.599Z" fill="#F7B094"/>
<path d="M279.924 308.57H289.151V397.095C289.151 397.993 288.423 398.721 287.525 398.721H281.55C280.652 398.721 279.924 397.993 279.924 397.095V308.57Z" fill="#0A2033"/>
<path d="M259.166 309.836H309.908V311.221C309.908 314.708 307.081 317.535 303.594 317.535H265.48C261.993 317.535 259.166 314.708 259.166 311.221V309.836Z" fill="#30475E"/>
<path d="M279.924 388.225H289.151V408.739C289.151 409.637 288.423 410.365 287.525 410.365H281.55C280.652 410.365 279.924 409.637 279.924 408.739V388.225Z" fill="#0A2033"/>
<path d="M236.657 404.964C236.657 407.946 239.075 410.364 242.057 410.364C245.039 410.364 247.457 407.946 247.457 404.964C247.457 401.982 245.039 399.564 242.057 399.564C239.075 399.564 236.657 401.982 236.657 404.964Z" fill="#0A2033"/>
<path d="M321.617 404.964C321.617 407.946 324.035 410.364 327.017 410.364C329.999 410.364 332.417 407.946 332.417 404.964C332.417 401.982 329.999 399.564 327.017 399.564C324.034 399.564 321.617 401.982 321.617 404.964Z" fill="#0A2033"/>
<path d="M275.256 397.57H293.818V381.35H275.256V397.57Z" fill="#30475E"/>
<path d="M236.657 401.386H332.417V399.504C332.417 396.328 329.842 393.753 326.666 393.753H242.409C239.233 393.753 236.658 396.328 236.658 399.504V401.386H236.657Z" fill="#FBD15B"/>
<path d="M284.537 319.354H281.336V379.902H284.537V319.354Z" fill="#30475E"/>
<path d="M320.786 244.403C318.572 244.334 316.772 246.166 316.9 248.377C317.534 259.367 315.204 286.177 304.968 295.325C292.452 306.509 256.979 304.986 256.979 304.986C256.979 304.986 251.121 312.176 262.837 313.773C274.554 315.371 307.573 314.306 315.562 306.85C323.295 299.633 327.885 280.724 324.426 247.812C324.227 245.924 322.683 244.462 320.786 244.403Z" fill="#FBD15B"/>
<path d="M254.324 379.902L258.542 389.52L245.617 395.192L241.383 385.542L254.324 379.902Z" fill="url(#paint2_radial_722_2)"/>
<path d="M315.277 272.999C314.478 274.597 257.048 273.031 251.624 273.526C251.624 273.526 216.474 290.302 211.425 306.008C210.914 307.59 210.77 309.683 210.93 312.175C212.336 334.287 237.516 387.236 237.516 387.236L241.382 385.542L254.324 379.902L256.161 379.103C256.161 379.103 236.19 319.588 240.184 316.393C244.178 313.198 289.442 305.209 305.147 300.959C320.869 296.694 315.277 272.999 315.277 272.999Z" fill="#56548C"/>
<path d="M205.048 382.377L206.057 396.827H191.949L190.94 382.345L205.048 382.377Z" fill="url(#paint3_radial_722_2)"/>
<path d="M251.337 273.031L250.826 273.255C250.826 273.255 191.982 281.515 182.396 298.02C176.165 308.757 188.226 387.209 188.226 387.209L209.044 387.257C209.044 387.257 205.93 321.906 206.969 318.263C208.135 314.109 210.132 312.607 210.931 312.176C210.771 309.684 210.915 307.59 211.426 306.009C216.475 290.303 251.625 273.527 251.625 273.527C251.512 273.447 251.416 273.271 251.337 273.031Z" fill="#3D3D7A"/>
<path d="M308.173 218.661L304.227 219.204C304.227 219.204 303.268 229.845 300.92 240.486L251.758 259.147L251.087 262.71C250.879 262.694 250.672 262.678 250.48 262.662C250.496 263.397 250.496 264.116 250.528 264.787C250.64 268.893 250.911 271.849 251.343 273.031C251.423 273.271 251.519 273.446 251.631 273.526C252.967 274.615 270.354 272.505 289.152 279.407C305.455 285.393 314.592 291.932 315.015 291.053C320.136 280.402 310.809 238.601 308.173 218.661Z" fill="#FF8578"/>
<path d="M303.044 243.042C301.734 249.337 298.347 261.863 291.7 263.541C283.024 265.746 266.248 265.634 250.527 264.787C250.495 264.116 250.495 263.397 250.479 262.662C250.671 262.678 250.878 262.694 251.086 262.71L251.757 259.147L300.919 240.486C303.268 229.845 304.226 219.204 304.226 219.204C304.226 219.204 304.226 219.268 304.242 219.38C304.338 221.026 305.009 233.743 303.044 243.042Z" fill="#F4675D"/>
<path d="M253.765 202.956C252.886 204.554 251.624 221.649 250.937 238.617L240.887 229.238C245.153 220.978 253.765 202.956 253.765 202.956Z" fill="#F4675D"/>
<path d="M247.742 251.015C239.258 252.485 231.461 253.747 231.461 253.747L231.445 254.162C222.002 246.621 207.639 225.259 207.639 225.259C207.639 225.259 211.937 220.098 213.007 218.74C213.167 218.532 236.589 234.653 237.788 234.509C238.092 234.477 239.29 232.368 240.888 229.237L250.938 238.616C250.778 242.658 250.65 246.684 250.57 250.503C249.627 250.679 248.684 250.839 247.742 251.015Z" fill="#F7B094"/>
<path d="M231.461 253.747L231.253 260.745H205.69C205.69 260.745 208.23 250.759 215.149 250.759C222.067 250.759 224.735 254.418 224.735 254.418L231.461 253.747Z" fill="url(#paint4_radial_722_2)"/>
<path d="M212.816 218.58L213.008 218.74C211.937 220.098 207.64 225.259 207.64 225.259L204.972 223.374C204.972 223.374 202.032 225.164 198.613 223.294C195.05 221.361 197.255 216.745 197.438 216.198C196.747 216.393 192.478 219.843 191.807 219.476C191.136 219.108 190.641 217.894 195.418 213.181C200.179 208.468 206.666 214.523 206.858 214.523L212.816 218.58Z" fill="#F7B094"/>
<path d="M199.168 222.492C199.168 222.492 198.138 224.421 199.969 225.259C201.8 226.097 205.363 226.702 206.893 226.555C208.423 226.408 209.64 224.266 209.64 224.266L205.005 219.917H201.3L199.168 222.492Z" fill="#F7B094"/>
<path d="M198.893 223.439C199.168 222.492 201.799 222.997 203.431 223.036C204.633 223.065 205.291 222.75 205.663 221.834C206.035 220.919 204.29 219.459 203.946 219.917C203.603 220.375 204.576 221.019 204.604 221.627C204.633 222.235 202.887 222.435 201.543 222.435C200.198 222.435 197.878 222.785 197.878 222.785L198.893 223.439Z" fill="#E8987C"/>
<path d="M298.421 249.561L273.385 240.694C271.564 244.097 269.614 246.654 267.681 247.165C264.757 247.932 257.695 249.258 250.569 250.504C249.626 250.68 248.684 250.839 247.741 251.015C239.257 252.485 231.46 253.747 231.46 253.747L231.444 254.162V254.434L231.252 260.745V262.346C231.252 262.346 239.752 261.911 250.473 262.662C265.476 263.732 284.824 264.372 291.231 261.352C294.235 259.93 296.631 255.265 298.517 249.513C298.485 249.529 298.453 249.545 298.421 249.561Z" fill="url(#paint5_radial_722_2)"/>
<path d="M273.385 240.694L298.421 249.561L297.288 252.906L272.508 242.277L273.385 240.694Z" fill="#F7B094"/>
<path d="M273.385 240.694C271.564 244.097 269.614 246.654 267.681 247.165C264.757 247.932 257.695 249.258 250.569 250.504C250.649 246.685 250.777 242.659 250.937 238.617C251.624 221.649 252.886 204.554 253.765 202.956C255.203 200.288 259.133 194.488 265.332 193.162L265.348 193.242C265.348 193.242 263.207 205.896 275.989 205.896C288.164 205.896 289.713 194.057 289.825 192.923C296.088 193.626 305.69 196.758 307.016 209.348C307.288 211.84 307.671 215.036 308.166 218.663L304.22 219.206C304.22 219.206 302.622 236.941 298.516 249.515C298.484 249.531 298.452 249.547 298.42 249.563L273.385 240.694Z" fill="#FF8578"/>
<path d="M273.126 238.386L283.123 214.186L275.758 239.364L273.126 238.386Z" fill="#6D4B35"/>
<path d="M289.826 192.922H284.378C284.378 192.922 276.625 201.435 271.641 201.435C266.657 201.435 269.344 192.97 269.344 192.97H266.913C259.928 192.97 254.05 198.215 253.26 205.156C253.169 205.951 253.087 206.705 253.016 207.387C252.483 212.537 273.346 216.285 273.346 216.285L284.088 215.684L290.611 202.956L291.911 197.744L289.826 192.922Z" fill="#FF8578"/>
<path d="M224.083 406.262C224.568 408.865 226.372 410.716 228.976 410.23L263.677 403.758C264.555 403.594 265.134 402.75 264.97 401.872L264.396 398.793C264.396 398.793 227.901 405.179 224.066 406.243L224.083 406.262Z" fill="#F1F2F2"/>
<path d="M234.407 397.526C234.769 397.212 235.117 396.9 235.479 396.586C236.175 395.963 236.86 395.357 237.519 394.769C237.867 394.458 238.215 394.146 238.538 393.854C239.172 393.286 239.769 392.754 240.304 392.277C240.689 391.93 241.048 391.601 241.371 391.309C241.964 390.777 242.449 390.343 242.788 390.039C243.082 389.776 243.518 389.763 243.821 390.017C245.248 391.216 249.858 393.959 258.209 388.791C258.605 388.546 259.13 388.674 259.345 389.087L264.395 398.792C264.395 398.792 227.9 405.178 224.065 406.242C225.326 405.458 229.985 401.427 234.407 397.526Z" fill="#3D3D7A"/>
<path d="M169.432 405.923C169.497 408.57 170.983 410.684 173.63 410.62L208.919 409.759C209.812 409.737 210.518 408.996 210.496 408.103L210.42 404.972C210.42 404.972 173.373 405.463 169.418 405.901L169.432 405.923Z" fill="#F1F2F2"/>
<path d="M181.016 398.942C181.424 398.689 181.817 398.438 182.224 398.185C183.01 397.681 183.783 397.191 184.527 396.717C184.92 396.465 185.313 396.213 185.679 395.976C186.395 395.516 187.069 395.086 187.673 394.701C188.108 394.419 188.515 394.153 188.881 393.916C189.551 393.486 190.099 393.134 190.482 392.888C190.814 392.675 191.247 392.732 191.505 393.031C192.722 394.442 196.837 397.884 205.905 394.113C206.335 393.934 206.833 394.144 206.98 394.587L210.419 404.973C210.419 404.973 173.372 405.464 169.417 405.902C170.787 405.326 176.029 402.088 181.016 398.942Z" fill="#3D3D7A"/>
<path d="M144.329 262.346L125.483 212.083H179.136L197.983 262.346H144.329Z" fill="#ABB5BA"/>
<path d="M201.299 262.346H197.983L179.136 212.083L182.149 212.217L199.58 257.713L201.299 262.346Z" fill="#8495A0"/>
<path d="M200.259 262.346H235.712L235.616 259.177C235.616 259.177 200.126 259.177 199.534 259.177" fill="#8495A0"/>
<path d="M351.302 271.932H342.766V412.166H351.302V271.932Z" fill="#8495A0"/>
<path d="M304.968 271.932H296.432V412.166H304.968V271.932Z" fill="#ABB5BA"/>
<path d="M156.529 271.932H147.993V412.166H156.529V271.932Z" fill="#8495A0"/>
<path d="M110.196 271.932H101.66V412.166H110.196V271.932Z" fill="#ABB5BA"/>
<path d="M359.844 272.465H93.483C91.192 272.465 89.334 270.607 89.334 268.316V266.495C89.334 264.203 91.192 262.346 93.483 262.346H359.843C362.135 262.346 363.992 264.204 363.992 266.495V268.316C363.993 270.608 362.135 272.465 359.844 272.465Z" fill="#141B56"/>
<path d="M134.441 217.366L135.359 219.813H146.047L145.129 217.366H134.441Z" fill="#8495A0"/>
<path d="M240.888 229.238L240.121 230.72L250.937 241.899V238.617L240.888 229.238Z" fill="#E8987C"/>
<path d="M461.661 410.363H29.745V420.225H461.661V410.363Z" fill="#A5B7C6"/>
<path d="M393.183 337.215C391.467 345.54 391.984 359.721 380.97 361.967C378.004 362.572 375.139 360.516 373.415 358.16C371.159 355.077 370.619 348.551 370.659 344.819C370.69 341.861 371.699 338.562 372.024 335.578C372.375 332.355 372.66 329.125 373.036 325.904C374.391 314.296 380.455 304.567 390.712 298.772C391.506 302.582 393.316 305.807 394.911 309.466C395.638 311.134 396.295 312.893 396.768 314.641C397.607 317.736 396.592 320.865 395.839 323.829C394.727 328.213 394.097 332.781 393.183 337.215Z" fill="url(#paint6_linear_722_2)"/>
<path d="M379.107 362.247C379.185 361.549 379.271 360.85 379.363 360.152C380.679 360.149 382.049 359.401 383.154 358.828C385.07 357.835 386.623 356.411 388.129 354.889C388.209 354.808 388.074 354.677 387.988 354.749C386.487 356.01 384.931 357.231 383.144 358.064C382.148 358.528 380.692 359.287 379.464 359.434C379.58 358.601 379.708 357.769 379.846 356.939C381.216 356.771 382.471 355.871 383.632 355.183C385.604 354.013 387.3 352.499 389.058 351.041C389.078 351.024 389.054 350.994 389.033 351.009C386.343 352.962 383.347 355.742 379.946 356.351C380.126 355.311 380.317 354.274 380.535 353.243C380.546 353.189 380.558 353.136 380.57 353.082C384.507 352.086 387.171 348.998 390.185 346.502C390.234 346.462 390.182 346.378 390.13 346.418C387.161 348.723 384.372 351.355 380.702 352.473C381.02 350.999 381.351 349.529 381.684 348.061C385.247 346.747 388.092 344.66 390.581 341.753C390.623 341.704 390.554 341.636 390.509 341.683C387.932 344.365 385.094 345.906 381.826 347.432C382.155 345.979 382.482 344.525 382.791 343.068C384.332 342.31 385.953 341.849 387.377 340.852C388.781 339.869 390.041 338.697 390.945 337.234C390.993 337.157 390.878 337.084 390.827 337.158C388.834 340.023 385.829 340.915 382.925 342.422C383.208 341.064 383.472 339.701 383.708 338.331C386.944 336.549 390.461 334.897 392.295 331.482C392.313 331.448 392.266 331.415 392.245 331.448C390.302 334.586 386.906 335.937 383.823 337.645C383.863 337.401 383.908 337.158 383.946 336.913C384.144 335.642 384.33 334.37 384.512 333.098C386.372 332.353 388.144 331.302 389.818 330.212C391.006 329.439 392.275 328.672 393.052 327.457C393.101 327.381 392.989 327.302 392.937 327.376C391.201 329.863 387.4 331.3 384.592 332.545C384.775 331.26 384.955 329.974 385.138 328.689C388.254 326.804 391.919 325.761 393.836 322.363C393.893 322.262 393.745 322.169 393.682 322.268C391.696 325.371 388.201 326.328 385.223 328.089C385.338 327.293 385.454 326.497 385.574 325.702C388.938 324.465 392.85 321.649 394.624 318.607C394.722 318.44 394.479 318.284 394.37 318.445C392.56 321.114 388.925 324.014 385.672 325.07C385.871 323.781 386.079 322.494 386.308 321.209C386.331 321.174 386.348 321.136 386.358 321.095C387.868 320.65 389.362 319.585 390.665 318.781C392.237 317.811 393.738 316.684 394.716 315.09C394.824 314.914 394.538 314.751 394.436 314.932C392.941 317.599 389.395 319.387 386.459 320.405C386.546 319.937 386.63 319.468 386.723 319C386.862 318.3 387.004 317.601 387.147 316.902C388.349 316.072 389.875 315.674 391.082 314.798C392.131 314.036 393.047 313.118 393.946 312.188C394.036 312.096 393.903 311.953 393.808 312.042C392.59 313.187 391.337 314.285 389.855 315.079C389.026 315.523 388.081 315.776 387.278 316.262C387.513 315.119 387.747 313.976 387.97 312.832C387.984 312.829 387.998 312.825 388.013 312.823C388.027 312.826 388.042 312.829 388.056 312.832C388.139 312.848 388.205 312.819 388.254 312.771C389.888 312.359 391.139 310.951 392.237 309.752C392.263 309.723 392.223 309.682 392.195 309.709C391.042 310.775 389.733 311.954 388.189 312.412C388.183 312.411 388.179 312.407 388.173 312.406C388.133 312.4 388.095 312.394 388.056 312.387C388.235 311.456 388.405 310.522 388.561 309.587C388.679 309.566 388.782 309.465 388.754 309.347C389.62 308.765 390.408 308.024 391.147 307.298C391.202 307.244 391.124 307.158 391.065 307.209C390.297 307.871 389.539 308.417 388.674 308.896C388.979 306.964 389.216 305.022 389.324 303.06C389.334 302.878 389.059 302.876 389.043 303.055C388.872 304.943 388.598 306.813 388.273 308.674C387.371 307.491 386.368 306.273 385.817 304.919C385.788 304.849 385.677 304.877 385.701 304.953C385.971 305.794 386.435 306.529 386.896 307.277C387.308 307.946 387.637 308.725 388.162 309.319C387.981 310.318 387.784 311.315 387.579 312.31C386.483 312.134 385.477 311.926 384.572 311.133C383.464 310.162 382.834 308.84 382.724 307.376C382.711 307.196 382.426 307.197 382.443 307.377C382.568 308.74 383.11 310.021 384.042 311.037C385.022 312.106 386.173 312.446 387.493 312.72C387.253 313.869 387.005 315.017 386.752 316.164C385.756 315.567 384.831 314.786 383.934 314.071C382.486 312.917 381.631 311.528 380.374 310.228C380.248 310.098 380.043 310.286 380.167 310.418C381.345 311.671 382.142 313.027 383.482 314.152C384.447 314.962 385.511 315.977 386.662 316.576C386.649 316.637 386.635 316.697 386.622 316.758C386.61 316.77 386.596 316.779 386.584 316.791C386.496 316.877 386.506 316.976 386.559 317.048C386.317 318.147 386.076 319.246 385.844 320.347C385.83 320.416 385.817 320.485 385.803 320.554C383.241 319.381 379.413 317.344 379.074 314.372C379.042 314.089 378.62 314.168 378.685 314.457C379.443 317.82 383.139 319.311 385.686 321.145C385.435 322.39 385.205 323.639 384.993 324.89C383.339 324.321 381.765 323.617 380.376 322.512C379.112 321.507 377.325 320.295 376.756 318.739C376.738 318.69 376.666 318.722 376.682 318.77C377.209 320.317 378.812 321.381 379.979 322.436C381.46 323.776 382.975 324.913 384.878 325.449C384.864 325.504 384.86 325.561 384.873 325.616C384.743 326.41 384.617 327.204 384.495 327.999C381.384 327.76 377.031 325.397 375.441 323.044C375.434 323.033 375.419 323.045 375.425 323.056C376.509 324.851 378.149 325.901 379.997 326.812C381.378 327.492 382.869 328.297 384.431 328.413C384.208 329.885 383.992 331.359 383.772 332.832C382.422 332.329 380.992 332.088 379.657 331.553C377.671 330.758 376.155 329.331 374.986 327.576C374.916 327.47 374.739 327.559 374.808 327.67C376.962 331.094 380.06 332.099 383.69 333.381C383.509 334.589 383.32 335.797 383.12 337.002C380.149 336.433 376.307 334.62 374.804 332.039C374.694 331.849 374.392 332.007 374.502 332.198C375.452 333.851 377.088 334.897 378.756 335.74C379.958 336.347 381.613 337.353 383.045 337.461C383.038 337.501 383.032 337.54 383.026 337.58C382.732 339.315 382.389 341.041 382.019 342.762C378.7 341.928 376.555 339.469 374.143 337.169C373.975 337.009 373.713 337.253 373.88 337.417C376.337 339.835 378.496 342.373 381.91 343.267C381.604 344.667 381.278 346.063 380.94 347.456C378.114 346.665 375.316 344.66 373.488 342.356C373.358 342.193 373.131 342.414 373.254 342.576C375.154 345.076 377.893 346.962 380.81 347.996C380.443 349.491 380.064 350.982 379.68 352.472C376.776 352.03 374.539 350.212 372.751 347.915C372.709 347.862 372.616 347.932 372.656 347.987C374.245 350.198 376.648 352.75 379.54 353.018C379.417 353.494 379.294 353.969 379.172 354.445C379.098 354.732 379.02 355.023 378.941 355.316C376.751 354.671 374.719 353.885 372.912 352.41C372.861 352.369 372.804 352.447 372.851 352.49C374.568 354.036 376.624 355.078 378.821 355.754C378.577 356.649 378.32 357.569 378.066 358.507C377.523 358.254 376.997 357.977 376.403 357.799C375.314 357.472 374.609 356.782 373.661 356.212C373.574 356.16 373.476 356.283 373.563 356.34C374.395 356.883 374.98 357.582 375.93 357.94C376.633 358.205 377.296 358.543 377.975 358.844C376.977 362.564 376.094 366.518 376.573 370.089C376.679 370.881 378.008 371.091 378.213 370.248C378.844 367.658 378.811 364.893 379.107 362.247Z" fill="#747DED"/>
<path d="M358.328 334.831C360.286 343.103 366.74 355.74 357.703 362.425C355.269 364.225 351.805 363.57 349.247 362.162C345.901 360.32 342.657 354.631 341.118 351.231C339.898 348.536 339.42 345.119 338.455 342.278C337.412 339.208 336.308 336.159 335.289 333.081C331.618 321.986 333.009 310.607 339.863 301.024C342.191 304.143 345.193 306.303 348.183 308.947C349.546 310.152 350.884 311.47 352.051 312.855C354.118 315.307 354.518 318.571 355.087 321.576C355.929 326.019 357.286 330.427 358.328 334.831Z" fill="url(#paint7_linear_722_2)"/>
<path d="M356.132 363.466C355.908 362.8 355.692 362.13 355.48 361.459C356.672 360.9 357.598 359.644 358.358 358.659C359.676 356.95 360.483 355.004 361.205 352.988C361.243 352.881 361.065 352.819 361.018 352.921C360.19 354.697 359.294 356.461 358.026 357.971C357.319 358.812 356.319 360.114 355.268 360.766C355.021 359.962 354.786 359.154 354.561 358.343C355.732 357.613 356.491 356.267 357.252 355.153C358.546 353.26 359.445 351.171 360.423 349.107C360.434 349.084 360.4 349.066 360.387 349.089C358.773 351.995 357.23 355.78 354.403 357.767C354.127 356.748 353.863 355.727 353.625 354.701C353.613 354.647 353.601 354.594 353.589 354.54C356.738 351.975 357.849 348.052 359.529 344.517C359.556 344.46 359.473 344.406 359.444 344.464C357.725 347.807 356.308 351.37 353.453 353.933C353.119 352.463 352.799 350.99 352.481 349.519C355.156 346.824 356.854 343.732 357.885 340.045C357.902 339.983 357.811 339.95 357.79 340.012C356.586 343.531 354.663 346.125 352.345 348.888C352.03 347.431 351.713 345.976 351.378 344.524C352.455 343.186 353.73 342.084 354.6 340.58C355.458 339.097 356.106 337.502 356.308 335.795C356.319 335.705 356.184 335.688 356.169 335.777C355.571 339.216 353.224 341.293 351.227 343.885C350.91 342.534 350.574 341.187 350.21 339.846C352.392 336.864 354.883 333.883 355.104 330.013C355.106 329.975 355.049 329.965 355.044 330.004C354.607 333.669 352.099 336.327 350.025 339.177C349.958 338.939 349.896 338.7 349.828 338.462C349.472 337.226 349.103 335.995 348.731 334.765C350.103 333.304 351.266 331.604 352.323 329.909C353.073 328.707 353.9 327.475 354.092 326.047C354.104 325.957 353.969 325.933 353.954 326.023C353.43 329.01 350.59 331.918 348.57 334.231C348.193 332.989 347.814 331.747 347.438 330.505C349.467 327.481 352.349 324.989 352.653 321.099C352.662 320.983 352.489 320.962 352.474 321.078C351.984 324.729 349.218 327.072 347.262 329.925C347.03 329.155 346.799 328.384 346.573 327.612C349.101 325.071 351.458 320.866 351.784 317.36C351.802 317.167 351.516 317.128 351.485 317.32C350.971 320.503 348.899 324.666 346.396 326.997C346.032 325.745 345.677 324.49 345.343 323.229C345.349 323.187 345.348 323.146 345.34 323.105C346.522 322.064 347.426 320.468 348.268 319.189C349.284 317.646 350.169 315.991 350.382 314.133C350.406 313.928 350.077 313.901 350.062 314.108C349.833 317.157 347.372 320.274 345.14 322.437C345.021 321.976 344.9 321.515 344.786 321.052C344.616 320.359 344.45 319.665 344.285 318.971C345.024 317.711 346.24 316.707 346.964 315.403C347.594 314.269 348.037 313.05 348.459 311.828C348.501 311.706 348.321 311.633 348.272 311.754C347.651 313.306 346.979 314.83 345.97 316.175C345.406 316.927 344.656 317.556 344.133 318.335C343.864 317.2 343.593 316.065 343.313 314.933C343.325 314.925 343.336 314.915 343.348 314.907C343.362 314.903 343.376 314.9 343.391 314.897C343.473 314.876 343.521 314.822 343.544 314.758C344.852 313.695 345.391 311.89 345.881 310.34C345.893 310.303 345.839 310.283 345.825 310.319C345.23 311.772 344.54 313.394 343.334 314.46C343.328 314.461 343.323 314.459 343.316 314.461C343.277 314.472 343.24 314.483 343.202 314.494C342.971 313.574 342.731 312.656 342.478 311.743C342.576 311.674 342.627 311.539 342.552 311.444C343.092 310.551 343.493 309.547 343.856 308.577C343.883 308.504 343.777 308.46 343.745 308.531C343.328 309.456 342.871 310.27 342.29 311.069C341.751 309.189 341.146 307.328 340.416 305.504C340.348 305.335 340.098 305.449 340.159 305.618C340.801 307.402 341.341 309.213 341.833 311.037C340.516 310.345 339.092 309.665 338.021 308.669C337.966 308.617 337.877 308.69 337.93 308.748C338.529 309.397 339.261 309.867 339.994 310.351C340.649 310.784 341.277 311.351 342.004 311.668C342.261 312.65 342.504 313.637 342.737 314.625C341.669 314.928 340.67 315.164 339.514 314.827C338.1 314.414 336.97 313.482 336.253 312.201C336.165 312.044 335.908 312.164 335.999 312.32C336.687 313.502 337.72 314.436 338.993 314.963C340.333 315.518 341.52 315.341 342.832 315.032C343.099 316.175 343.359 317.32 343.614 318.467C342.459 318.346 341.291 318.029 340.176 317.759C338.376 317.323 337.015 316.426 335.326 315.778C335.157 315.713 335.05 315.97 335.218 316.038C336.815 316.676 338.109 317.57 339.799 318.024C341.016 318.351 342.409 318.822 343.705 318.88C343.718 318.94 343.732 319.001 343.745 319.061C343.739 319.077 343.73 319.091 343.724 319.107C343.681 319.222 343.731 319.308 343.809 319.35C344.053 320.448 344.298 321.547 344.553 322.643C344.569 322.711 344.587 322.779 344.603 322.848C341.786 322.866 337.455 322.635 335.894 320.084C335.745 319.841 335.396 320.091 335.577 320.325C337.683 323.054 341.664 322.845 344.746 323.433C345.044 324.668 345.362 325.897 345.699 327.121C343.959 327.303 342.235 327.329 340.51 326.914C338.941 326.536 336.809 326.192 335.636 325.021C335.599 324.984 335.547 325.044 335.582 325.081C336.713 326.261 338.615 326.549 340.118 327.013C342.026 327.603 343.879 327.995 345.831 327.677C345.841 327.733 345.862 327.786 345.897 327.831C346.114 328.606 346.335 329.379 346.56 330.151C343.639 331.247 338.695 330.943 336.261 329.48C336.25 329.473 336.241 329.49 336.252 329.498C337.992 330.668 339.922 330.928 341.982 330.973C343.521 331.007 345.213 331.107 346.678 330.553C347.097 331.982 347.523 333.409 347.945 334.837C346.509 334.951 345.111 335.336 343.674 335.414C341.538 335.532 339.561 334.877 337.76 333.78C337.651 333.714 337.529 333.869 337.639 333.94C341.037 336.135 344.27 335.738 348.102 335.369C348.447 336.541 348.786 337.715 349.114 338.892C346.18 339.63 341.932 339.608 339.481 337.903C339.301 337.778 339.094 338.048 339.275 338.175C340.834 339.273 342.758 339.53 344.627 339.59C345.973 339.633 347.898 339.847 349.241 339.34C349.252 339.379 349.263 339.417 349.274 339.456C349.74 341.153 350.158 342.863 350.548 344.579C347.187 345.224 344.205 343.9 341.047 342.832C340.827 342.758 340.693 343.09 340.913 343.168C344.161 344.323 347.189 345.713 350.662 345.082C350.975 346.481 351.269 347.883 351.55 349.289C348.655 349.765 345.271 349.128 342.641 347.811C342.455 347.717 342.342 348.014 342.522 348.109C345.3 349.573 348.579 350.128 351.659 349.834C351.957 351.344 352.243 352.856 352.524 354.369C349.705 355.194 346.91 354.49 344.319 353.162C344.259 353.131 344.203 353.234 344.263 353.268C346.636 354.602 349.892 355.901 352.627 354.924C352.717 355.407 352.806 355.89 352.895 356.373C352.949 356.665 353.002 356.961 353.054 357.26C350.797 357.6 348.623 357.745 346.362 357.17C346.299 357.154 346.28 357.249 346.341 357.268C348.55 357.945 350.854 358.022 353.131 357.708C353.288 358.622 353.443 359.565 353.608 360.522C353.009 360.522 352.415 360.493 351.802 360.582C350.677 360.746 349.746 360.417 348.646 360.301C348.545 360.29 348.508 360.443 348.612 360.458C349.595 360.599 350.421 360.986 351.433 360.909C352.182 360.852 352.926 360.879 353.669 360.865C354.334 364.659 355.203 368.616 357.144 371.651C357.574 372.324 358.867 371.954 358.698 371.103C358.178 368.483 356.981 365.989 356.132 363.466Z" fill="#747DED"/>
<path d="M377.417 328.42C377.882 338.93 382.802 355.787 370.269 361.822C366.894 363.447 362.833 361.849 360.05 359.545C356.409 356.53 353.782 348.864 352.698 344.374C351.839 340.815 352.049 336.551 351.534 332.873C350.978 328.899 350.341 324.937 349.815 320.959C347.921 306.621 352.247 293.109 362.798 283.047C364.906 287.378 368.055 290.699 371.079 294.605C372.457 296.385 373.778 298.297 374.876 300.251C376.821 303.711 376.552 307.772 376.547 311.557C376.54 317.152 377.169 322.824 377.417 328.42Z" fill="url(#paint8_linear_722_2)"/>
<path d="M368.117 362.723C367.999 361.861 367.891 360.997 367.79 360.132C369.368 359.729 370.785 358.416 371.937 357.395C373.935 355.623 375.367 353.443 376.711 351.16C376.783 351.038 376.58 350.922 376.499 351.035C375.081 353.003 373.584 354.94 371.692 356.481C370.638 357.34 369.121 358.691 367.692 359.24C367.578 358.205 367.48 357.168 367.393 356.131C368.986 355.514 370.22 354.054 371.403 352.876C373.414 350.874 374.991 348.543 376.657 346.261C376.676 346.235 376.638 346.206 376.618 346.23C373.983 349.389 371.231 353.633 367.334 355.395C367.234 354.093 367.149 352.79 367.098 351.487C367.095 351.419 367.094 351.351 367.091 351.283C371.513 348.894 373.772 344.382 376.633 340.473C376.679 340.41 376.591 340.325 376.541 340.389C373.678 344.055 371.129 348.058 367.065 350.513C366.999 348.648 366.951 346.784 366.905 344.921C370.781 342.265 373.562 338.898 375.668 334.655C375.703 334.584 375.601 334.522 375.56 334.592C373.281 338.592 370.343 341.3 366.885 344.123C366.839 342.279 366.791 340.436 366.72 338.594C368.339 337.217 370.144 336.172 371.55 334.545C372.937 332.94 374.093 331.152 374.734 329.123C374.768 329.016 374.608 328.964 374.569 329.068C373.046 333.11 369.711 335.091 366.684 337.78C366.612 336.065 366.515 334.349 366.383 332.634C369.726 329.514 373.444 326.466 374.609 321.813C374.621 321.767 374.554 321.742 374.539 321.788C373.159 326.142 369.494 328.793 366.313 331.777C366.287 331.472 366.267 331.167 366.239 330.862C366.092 329.278 365.929 327.695 365.761 326.113C367.767 324.655 369.574 322.857 371.252 321.042C372.442 319.754 373.732 318.449 374.297 316.756C374.332 316.65 374.174 316.589 374.134 316.694C372.805 320.204 368.68 323.082 365.688 325.426C365.517 323.829 365.344 322.232 365.174 320.634C368.341 317.427 372.422 315.065 373.692 310.407C373.73 310.268 373.525 310.202 373.479 310.339C372.037 314.664 368.133 316.872 365.094 319.888C364.99 318.898 364.888 317.908 364.791 316.917C368.452 314.413 372.292 309.847 373.499 305.661C373.565 305.431 373.227 305.317 373.145 305.543C371.783 309.293 368.3 313.875 364.718 316.129C364.566 314.522 364.425 312.915 364.31 311.304C364.327 311.255 364.336 311.205 364.336 311.152C366.013 310.161 367.482 308.43 368.803 307.069C370.395 305.429 371.854 303.621 372.544 301.412C372.62 301.168 372.227 301.06 372.161 301.307C371.176 304.96 367.463 308.18 364.249 310.293C364.211 309.704 364.17 309.116 364.14 308.527C364.094 307.645 364.053 306.763 364.013 305.881C365.204 304.521 366.914 303.581 368.096 302.163C369.124 300.93 369.945 299.551 370.742 298.163C370.821 298.025 370.619 297.894 370.532 298.029C369.418 299.772 368.248 301.469 366.71 302.871C365.85 303.655 364.792 304.245 363.977 305.072C363.912 303.629 363.846 302.187 363.768 300.746C363.785 300.739 363.8 300.729 363.816 300.722C363.834 300.721 363.852 300.72 363.87 300.719C363.975 300.713 364.045 300.658 364.089 300.586C365.925 299.596 366.999 297.528 367.953 295.756C367.976 295.714 367.916 295.677 367.889 295.717C366.829 297.345 365.615 299.157 363.902 300.175C363.894 300.175 363.889 300.172 363.88 300.172C363.831 300.177 363.783 300.181 363.733 300.185C363.666 299.013 363.586 297.842 363.49 296.673C363.625 296.612 363.718 296.459 363.649 296.326C364.512 295.365 365.233 294.237 365.898 293.142C365.948 293.06 365.829 292.981 365.773 293.06C365.052 294.088 364.308 294.972 363.416 295.809C363.196 293.399 362.892 290.997 362.426 288.61C362.383 288.389 362.052 288.47 362.087 288.689C362.454 291.007 362.692 293.334 362.867 295.665C361.426 294.519 359.853 293.362 358.781 291.904C358.725 291.829 358.601 291.896 358.652 291.98C359.23 292.907 360.011 293.649 360.79 294.407C361.487 295.085 362.119 295.919 362.928 296.473C363.014 297.727 363.08 298.982 363.135 300.238C361.766 300.359 360.497 300.415 359.171 299.737C357.547 298.907 356.39 297.513 355.815 295.789C355.744 295.577 355.404 295.664 355.478 295.875C356.041 297.472 357.08 298.845 358.506 299.781C360.006 300.766 361.49 300.826 363.157 300.754C363.217 302.206 363.268 303.658 363.313 305.111C361.937 304.697 360.591 304.041 359.297 303.455C357.21 302.509 355.762 301.102 353.86 299.924C353.67 299.806 353.48 300.094 353.669 300.215C355.462 301.361 356.829 302.746 358.779 303.69C360.182 304.369 361.767 305.265 363.329 305.635C363.331 305.712 363.334 305.788 363.336 305.865C363.325 305.883 363.311 305.898 363.3 305.916C363.22 306.046 363.262 306.162 363.347 306.232C363.39 307.624 363.433 309.016 363.489 310.407C363.493 310.494 363.499 310.581 363.502 310.668C360.073 310.038 354.861 308.754 353.554 305.291C353.429 304.961 352.947 305.184 353.113 305.511C355.042 309.317 359.929 309.984 363.54 311.413C363.616 312.983 363.718 314.551 363.845 316.117C361.687 315.936 359.586 315.568 357.584 314.663C355.763 313.841 353.252 312.928 352.097 311.233C352.061 311.18 351.983 311.24 352.018 311.293C353.119 312.99 355.366 313.78 357.085 314.692C359.268 315.851 361.43 316.756 363.877 316.822C363.876 316.892 363.889 316.961 363.922 317.024C364.006 318.016 364.096 319.007 364.191 319.998C360.386 320.654 354.447 319.14 351.825 316.798C351.813 316.787 351.798 316.806 351.809 316.817C353.654 318.642 355.94 319.405 358.433 319.937C360.296 320.335 362.33 320.848 364.239 320.514C364.417 322.348 364.605 324.181 364.788 326.015C363.016 325.821 361.227 325.965 359.462 325.728C356.838 325.376 354.587 324.123 352.651 322.372C352.534 322.266 352.349 322.427 352.466 322.538C356.089 325.994 360.111 326.259 364.855 326.697C365.004 328.202 365.143 329.708 365.269 331.214C361.532 331.432 356.372 330.421 353.787 327.781C353.597 327.587 353.283 327.868 353.473 328.064C355.114 329.76 357.394 330.518 359.651 331.024C361.277 331.388 363.568 332.093 365.318 331.788C365.322 331.837 365.327 331.887 365.331 331.936C365.505 334.107 365.617 336.282 365.694 338.458C361.459 338.464 358.14 336.164 354.549 334.134C354.299 333.993 354.059 334.365 354.308 334.511C357.989 336.667 361.348 339.058 365.716 339.095C365.773 340.868 365.806 342.641 365.822 344.415C362.192 344.323 358.226 342.766 355.334 340.555C355.129 340.398 354.923 340.733 355.12 340.89C358.158 343.313 362.016 344.747 365.829 345.102C365.842 347.007 365.839 348.911 365.83 350.815C362.212 351.165 358.977 349.662 356.135 347.448C356.069 347.396 355.978 347.509 356.043 347.563C358.619 349.734 362.277 352.068 365.827 351.512C365.824 352.12 365.821 352.728 365.818 353.335C365.816 353.702 365.811 354.074 365.806 354.45C362.983 354.34 360.307 354.014 357.691 352.791C357.618 352.757 357.572 352.869 357.642 352.906C360.171 354.24 362.954 354.867 365.795 355.012C365.774 356.16 365.744 357.342 365.723 358.544C364.995 358.405 364.279 358.232 363.513 358.199C362.107 358.137 361.052 357.523 359.742 357.127C359.622 357.091 359.541 357.268 359.664 357.31C360.827 357.709 361.741 358.371 362.988 358.512C363.912 358.617 364.81 358.821 365.716 358.976C365.646 363.742 365.786 368.753 367.443 372.893C367.811 373.811 369.468 373.66 369.459 372.587C369.442 369.295 368.565 365.986 368.117 362.723Z" fill="#747DED"/>
<path d="M384.335 366.66L383.871 375.203L383.145 388.506L381.955 410.363H352.363L351.173 388.506L350.448 375.203L349.984 366.66H384.335Z" fill="#95A8B5"/>
<path d="M383.871 375.203L383.776 376.916L383.68 378.689L383.145 388.506H351.173L350.638 378.689L350.543 376.916L350.448 375.203H383.871Z" fill="#A5B7C6"/>
<path d="M383.776 376.916L383.68 378.689H350.638L350.543 376.916H383.776Z" fill="#95A8B5"/>
</g>
<defs>
<radialGradient id="paint0_radial_722_2" cx="0" cy="0" r="1" gradientUnits="userSpaceOnUse" gradientTransform="translate(277.52 192.378) scale(12.9255 12.9255)">
<stop stop-color="#FFC8AF"/>
<stop offset="1" stop-color="#FFBB9C"/>
</radialGradient>
<radialGradient id="paint1_radial_722_2" cx="0" cy="0" r="1" gradientUnits="userSpaceOnUse" gradientTransform="translate(270.042 168.982) rotate(-12.1516) scale(20.3776 20.3776)">
<stop stop-color="#FFC8AF"/>
<stop offset="1" stop-color="#FFBB9C"/>
</radialGradient>
<radialGradient id="paint2_radial_722_2" cx="0" cy="0" r="1" gradientUnits="userSpaceOnUse" gradientTransform="translate(249.963 387.547) scale(8.1259 8.12589)">
<stop stop-color="#FFC8AF"/>
<stop offset="1" stop-color="#FFBB9C"/>
</radialGradient>
<radialGradient id="paint3_radial_722_2" cx="0" cy="0" r="1" gradientUnits="userSpaceOnUse" gradientTransform="translate(198.499 389.586) scale(7.4015 7.4015)">
<stop stop-color="#FFC8AF"/>
<stop offset="1" stop-color="#FFBB9C"/>
</radialGradient>
<radialGradient id="paint4_radial_722_2" cx="0" cy="0" r="1" gradientUnits="userSpaceOnUse" gradientTransform="translate(243.561 250.697) scale(41.4442 41.4442)">
<stop stop-color="#FFC8AF"/>
<stop offset="1" stop-color="#FFBB9C"/>
</radialGradient>
<radialGradient id="paint5_radial_722_2" cx="0" cy="0" r="1" gradientUnits="userSpaceOnUse" gradientTransform="translate(243.561 250.697) scale(41.444 41.444)">
<stop stop-color="#FFC8AF"/>
<stop offset="1" stop-color="#FFBB9C"/>
</radialGradient>
<linearGradient id="paint6_linear_722_2" x1="383.869" y1="298.773" x2="383.872" y2="362.073" gradientUnits="userSpaceOnUse">
<stop stop-color="#606BF1"/>
<stop offset="1" stop-color="#58479F"/>
</linearGradient>
<linearGradient id="paint7_linear_722_2" x1="333.66" y1="303.912" x2="360.38" y2="361.297" gradientUnits="userSpaceOnUse">
<stop stop-color="#606BF1"/>
<stop offset="1" stop-color="#58479F"/>
</linearGradient>
<linearGradient id="paint8_linear_722_2" x1="354.588" y1="285.12" x2="373.782" y2="361.07" gradientUnits="userSpaceOnUse">
<stop stop-color="#606BF1"/>
<stop offset="1" stop-color="#58479F"/>
</linearGradient>
<clipPath id="clip0_722_2">
<rect width="500" height="500" fill="white"/>
</clipPath>
</defs>
</svg>
